# xmcd
#
# Track frame offsets: 
#        150
#        12024
#        24737
#        37129
#        48798
#        60504
#        72749
#        85542
#        98090
#        111134
#        123192
#        136412
#        149744
#        161462
#        174665
#        187915
#        200522
#        213640
#        226392
#        235878
#        247407
#        259334
#        270260
#        282158
#
# Disc length: 3914 seconds
#
# Revision: 8
# Processed by: cddbd v1.5.2PL0 Copyright (c) Steve Scherf et al.
# Submitted via: ExactAudioCopy v0.99pb5
#
DISCID=5f0f4818
DTITLE=Hank Williams - The Complete Hank Williams [CD03 of 10)
DYEAR=1998
DGENRE=Country
TTITLE0=Too Many Parties And Too Many Pals (Luke the Drifter)
TTITLE1=Beyond The Sunset (Luke the Drifter)
TTITLE2=The Funeral (Luke the Drifter)
TTITLE3=Everything's Okay (Luke the Drifter)
TTITLE4=They'll Never Take Her Love From Me
TTITLE5=Nobody's Lonesome For Me
TTITLE6=Moanin' The Blues
TTITLE7=Help Me Understand (Luke the Drifter)
TTITLE8=No, No Joe (Luke the Drifter)
TTITLE9=Honky Tonk Blues
TTITLE10=Cold, Cold Heart
TTITLE11=Dear John
TTITLE12=Just Waitin' (Luke the Drifter)
TTITLE13=Men With Broken Hearts (Luke the Drifter)
TTITLE14=I Can't Help It (If I'm Still In Love With You)
TTITLE15=Howlin' At The Moon
TTITLE16=Hey, Good Lookin'
TTITLE17=My Heart Would Know
TTITLE18=The Pale Horse And His Rider
TTITLE19=A Home In Heaven
TTITLE20=Ramblin' Man (Luke the Drifter)
TTITLE21=Pictures From Life's Other Side (Luke the Drifter)
TTITLE22=I've Been Down That Road Before (Luke the Drifter)
TTITLE23=I Dreamed About Mama Last Night (Luke the Drifter)
EXTD=YEAR: 1998 ID3G:   2
EXTT0=
EXTT1=
EXTT2=
EXTT3=
EXTT4=
EXTT5=
EXTT6=
EXTT7=
EXTT8=
EXTT9=
EXTT10=
EXTT11=
EXTT12=
EXTT13=
EXTT14=
EXTT15=
EXTT16=
EXTT17=
EXTT18=
EXTT19=
EXTT20=
EXTT21=
EXTT22=
EXTT23=
PLAYORDER=
